<?xml version="1.0" standalone="no"?>
<!DOCTYPE svg PUBLIC "-//W3C//DTD SVG 1.1//EN" "http://www.w3.org/Graphics/SVG/1.1/DTD/svg11.dtd" >
<svg>
<metadata>
Created by FontForge 20090622 at Tue Nov  5 22:33:44 2019
 By deploy user
Typeface &#194;&#169; Staffan Vilcans. 2005. All Rights Reserved
</metadata>
<defs>
<font id="TheArtofIlluminating" horiz-adv-x="602" >
  <font-face 
    font-family="The Art of Illuminating"
    font-weight="400"
    font-stretch="normal"
    units-per-em="2048"
    panose-1="2 0 0 0 0 0 0 0 0 0"
    ascent="1638"
    descent="-410"
    cap-height="1486"
    bbox="-236 -557 1699 1855"
    underline-thickness="150"
    underline-position="-142"
    unicode-range="U+0020-U+263A"
  />
<missing-glyph horiz-adv-x="1152" 
d="M380 1056l-73 -24q25 -134 -12 -243q109 -24 146 109q0 97 -49 158h-12zM732 947q-109 -109 -133 -231h97q48 61 24 97q243 158 49 231zM902 680l-146 -109q73 -49 146 12q122 -97 122 109l-98 12zM429 534q-182 122 -158 -48q-182 -37 -73 -183q-36 -12 -61 -48
q25 206 -121 85q73 -73 109 -134q24 37 61 37q-24 -134 328 -61q24 49 12 97q36 -24 60 0l-48 73q146 49 170 194l-24 25q-85 0 -134 48q-85 -36 -121 -85zM174 36q230 13 48 110q-36 -49 -48 -110zM720 24q61 -24 109 12q-12 -24 25 -36l-25 49q-24 85 -97 85
q-24 -61 -12 -110z" />
    <glyph glyph-name=".notdef" horiz-adv-x="1152" 
d="M380 1056l-73 -24q25 -134 -12 -243q109 -24 146 109q0 97 -49 158h-12zM732 947q-109 -109 -133 -231h97q48 61 24 97q243 158 49 231zM902 680l-146 -109q73 -49 146 12q122 -97 122 109l-98 12zM429 534q-182 122 -158 -48q-182 -37 -73 -183q-36 -12 -61 -48
q25 206 -121 85q73 -73 109 -134q24 37 61 37q-24 -134 328 -61q24 49 12 97q36 -24 60 0l-48 73q146 49 170 194l-24 25q-85 0 -134 48q-85 -36 -121 -85zM174 36q230 13 48 110q-36 -49 -48 -110zM720 24q61 -24 109 12q-12 -24 25 -36l-25 49q-24 85 -97 85
q-24 -61 -12 -110z" />
    <glyph glyph-name=".null" horiz-adv-x="0" 
 />
    <glyph glyph-name="nonmarkingreturn" horiz-adv-x="569" 
 />
    <glyph glyph-name="space" unicode=" " horiz-adv-x="569" 
 />
    <glyph glyph-name="space" unicode="&#xa0;" horiz-adv-x="569" 
 />
    <glyph glyph-name="exclam" unicode="!" horiz-adv-x="344" 
d="M122 1794h15l87 -117h44q4 117 44 117l29 -47v-24l-29 -70v-914l29 -71v-70q-94 -213 -131 -235q-23 0 -131 305v47q0 47 43 47v727l-29 70v188zM191 326h19q126 -112 126 -175q0 -24 -126 -136h-10q-87 65 -87 117h-29q0 -44 -39 -68h-10q-19 0 -19 29l117 194z" />
    <glyph glyph-name="quotedbl" unicode="&#x22;" horiz-adv-x="396" 
d="M121 1383l15 -11v-78l-75 -100l15 -11v-11l-15 -67l15 -11v-11l-15 -11h-16l-45 122q0 189 121 189zM334 1383l15 -11v-78l-75 -100l15 -11v-11l-15 -67l15 -11v-11l-15 -11h-16l-45 122q0 189 121 189z" />
    <glyph glyph-name="quotesingle" unicode="'" horiz-adv-x="264" 
d="M173 1383l15 -11v-78l-75 -100l15 -11v-11l-15 -67l15 -11v-11l-15 -11h-16l-45 122q0 189 121 189z" />
    <glyph glyph-name="parenleft" unicode="(" horiz-adv-x="558" 
d="M513 1600v-23h-45l-67 45h-67l-89 -134v-958l23 -402q289 -346 289 -467v-45l-44 -45h-23l-22 23l22 22l-66 201q-424 359 -424 623v1071q0 176 245 334q56 -3 268 -245z" />
    <glyph glyph-name="parenright" unicode=")" 
d="M312 1845q245 -158 245 -334v-1071q0 -264 -423 -623l-67 -201l22 -22l-22 -23h-22l-45 45v45q0 121 290 467l22 402v958l-89 134h-67l-67 -45h-44v23q211 242 267 245z" />
    <glyph glyph-name="plus" unicode="+" horiz-adv-x="858" 
d="M706 1192q45 0 45 -66q0 -101 -221 -353h88l155 22l44 -67q-104 -198 -243 -198h-177q-278 -507 -331 -530h-22q0 75 265 508l22 66l-132 22l-177 -66l-22 22v22q124 221 287 221h22l155 -22l154 309q43 100 88 110z" />
    <glyph glyph-name="comma" unicode="," horiz-adv-x="323" 
d="M155 254h23l88 -89v-89q0 -162 -244 -222v23q0 44 67 44l22 22v45q0 74 -67 155v44z" />
    <glyph glyph-name="hyphen" unicode="-" horiz-adv-x="888" 
d="M320 795h112l68 -45h134l179 45l45 -67q0 -74 -202 -202l-425 67l-180 -67l-22 23v22q126 224 291 224z" />
    <glyph glyph-name="hyphen" unicode="&#xad;" horiz-adv-x="888" 
d="M320 795h112l68 -45h134l179 45l45 -67q0 -74 -202 -202l-425 67l-180 -67l-22 23v22q126 224 291 224z" />
    <glyph glyph-name="period" unicode="." horiz-adv-x="301" 
d="M122 216h13q88 -78 88 -121q0 -17 -88 -95h-7q-60 45 -60 81h-21q0 -30 -27 -47h-6q-14 0 -14 20l81 135z" />
    <glyph glyph-name="slash" unicode="/" horiz-adv-x="785" 
d="M699 1207l42 -43v-42q0 -85 -254 -381q-21 -148 -445 -741l-42 42q644 1138 677 1144z" />
    <glyph glyph-name="zero" horiz-adv-x="1139" 
 />
    <glyph glyph-name="one" unicode="1" horiz-adv-x="359" 
d="M137 1193h39q91 -59 176 -215v-39l-39 -59v-763l39 -58v-20l-39 -39q-39 0 -78 117h-20l-137 -117h-19l-39 39v157l39 58v606q-59 0 -59 39v40z" />
    <glyph glyph-name="two" unicode="2" horiz-adv-x="976" 
d="M393 1199l511 -373q-106 -354 -393 -354q-177 -40 -177 -79v-137q110 98 236 98h157q256 -134 256 -334l-20 -20h-19q-95 98 -217 98h-196l-79 -59h-373l-40 40v196q0 280 158 334l393 158v118l-59 59q-157 -256 -374 -256q-130 53 -157 118v39q0 26 197 79z" />
    <glyph glyph-name="three" unicode="3" horiz-adv-x="675" 
d="M278 1199q91 0 300 -278v-107q-38 -193 -150 -193q193 -152 193 -278v-65q0 -178 -300 -278h-107l-214 214v64l64 65h22l235 -172h86v43q0 88 -257 321v22q47 150 214 150v42q0 92 -214 257v43z" />
    <glyph glyph-name="four" unicode="4" horiz-adv-x="961" 
d="M169 1206l212 -233v-444h106l106 106v190q0 127 -127 127v21q63 147 190 212h21q191 -142 191 -275v-677l42 -64v-84l-42 -43l-127 21q0 -48 -106 -63l-42 63l21 339v64l-85 21l-190 -170h-22l-211 212v339q-57 0 -106 105q119 211 169 233z" />
    <glyph glyph-name="five" unicode="5" horiz-adv-x="1042" 
d="M978 1242l20 -20v-61q0 -187 -306 -285h-101q-131 0 -245 102h-20v-123q0 -61 428 -163q93 -100 163 -325l-510 -367q-213 306 -346 306q-61 0 -61 40v41q0 37 143 122h40q235 0 347 -285l81 82v122q0 26 -305 122q-245 144 -245 183l-20 82l20 102v224l61 61h306
q86 -82 163 -82h183q80 0 204 122z" />
    <glyph glyph-name="six" unicode="6" horiz-adv-x="990" 
d="M925 1254l21 -20v-62q-88 -288 -288 -288h-123q-133 0 -247 103h-21v-123q0 -62 453 -165q144 -177 144 -267v-41q-253 -233 -514 -391l-329 411v350l-21 103l411 329l103 -62h267zM267 555v-41l247 -267l62 82v123q0 42 -309 103z" />
    <glyph glyph-name="seven" unicode="7" horiz-adv-x="873" 
d="M216 1190l174 -65h259l108 22l22 -22v-21q0 -78 -195 -347h65l152 22l43 -65q-73 -195 -303 -195q-173 0 -303 -389l-130 -130h-21v22l281 541l-130 21l-173 -65l-22 22v22q122 216 282 216h43l151 -22l130 260h-21q-177 -108 -412 -108l-129 43h-22l-22 -21h-21l-22 21
v22z" />
    <glyph glyph-name="eight" unicode="8" horiz-adv-x="763" 
d="M363 1195q185 -90 277 -278v-106q-38 -192 -149 -192l213 -235v-107q-167 -277 -320 -277h-85q-256 175 -256 320v21l170 192q-213 209 -213 299v21q135 178 363 342zM256 960v-149l107 -107h64v43q0 118 -150 213h-21zM299 448v-149l106 -107h64v43q0 118 -149 213h-21z
" />
    <glyph glyph-name="nine" unicode="9" horiz-adv-x="616" 
d="M279 1207h13l265 -199l-13 -66v-40l13 -358q-261 -277 -398 -544h-26q-62 93 -93 93l-40 40l265 265v40q-172 50 -172 278l-13 133v146q136 169 199 212zM265 955v-424l14 -67h26q93 65 93 146v425q0 26 -40 26q-30 0 -93 -106z" />
    <glyph glyph-name="colon" unicode=":" horiz-adv-x="293" 
d="M150 642h13q88 -78 88 -121q0 -17 -88 -95h-7q-60 45 -60 81h-21q0 -30 -27 -47h-6q-14 0 -14 20l81 135zM144 1177h13q88 -78 88 -121q0 -17 -88 -95h-7q-60 45 -60 81h-21q0 -30 -27 -47h-6q-14 0 -14 20l81 135z" />
    <glyph glyph-name="semicolon" unicode=";" horiz-adv-x="271" 
d="M130 884h13q88 -78 88 -121q0 -17 -88 -95h-7q-60 45 -60 81h-21q0 -30 -27 -47h-6q-14 0 -14 20l81 135zM155 254h23l88 -89v-89q0 -162 -244 -222v23q0 44 67 44l22 22v45q0 74 -67 155v44z" />
    <glyph glyph-name="semicolon" unicode="&#x37e;" horiz-adv-x="271" 
d="M130 884h13q88 -78 88 -121q0 -17 -88 -95h-7q-60 45 -60 81h-21q0 -30 -27 -47h-6q-14 0 -14 20l81 135zM155 254h23l88 -89v-89q0 -162 -244 -222v23q0 44 67 44l22 22v45q0 74 -67 155v44z" />
    <glyph glyph-name="less" unicode="&#x3c;" horiz-adv-x="841" 
d="M0 584v42q0 101 768 581v-125l-548 -498q548 -394 548 -457v-124h-72q-615 438 -696 581z" />
    <glyph glyph-name="equal" unicode="=" horiz-adv-x="873" 
d="M298 1008h112l68 -45h134l179 45l45 -67q0 -74 -202 -202l-425 67l-180 -67l-22 23v22q126 224 291 224zM298 694h112l68 -45h134l179 45l45 -67q-126 -214 -202 -224q-275 0 -381 90h-44q-109 -90 -180 -90l-22 67q126 224 291 224z" />
    <glyph glyph-name="greater" unicode="&#x3e;" horiz-adv-x="807" 
d="M72 4h-72v124q0 62 544 453l-544 494v124q762 -476 762 -577v-41q-80 -142 -690 -577z" />
    <glyph glyph-name="question" unicode="?" horiz-adv-x="1078" 
d="M431 1405l589 -430q0 -320 -408 -386l-23 -22v-227h-22l-272 204q0 255 362 340v159l-68 68q-187 -295 -408 -295h-22q-159 95 -159 136v45q0 31 204 91zM453 271h54l109 -135l-136 -136l-81 81l-27 -27h-55v27z" />
    <glyph glyph-name="at" unicode="@" horiz-adv-x="1005" 
d="M487 1192h40q393 0 417 -517q-27 -258 -99 -258h-179l-79 59q-20 -59 -120 -59h-39q-179 0 -179 258q22 298 238 298l100 -39l79 19l40 -39v-438h99q60 13 60 159v60q-44 417 -318 417h-60q-377 -52 -377 -457q68 -377 318 -377h198l20 19h20l20 -19v-20l-60 -60h-218
q-285 0 -378 457v80q121 457 457 457zM348 695v-20q0 -179 139 -179q80 0 120 80v278l-120 40q-125 0 -139 -199z" />
    <glyph glyph-name="A" unicode="A" horiz-adv-x="745" 
d="M190 1199h57q38 0 38 -114l153 -38q78 152 114 152l95 -95v-1028l-38 -38l-57 57h-19q0 -76 -38 -76h-38l-38 209q-219 -105 -343 -228q-43 0 -76 228l114 571l-38 191q49 209 114 209zM133 1009v-153q62 -109 133 -152h153v305l-57 -38h-172zM171 552v-267l19 -95h19
q210 57 210 115v323h-172z" />
    <glyph glyph-name="A" unicode="a" horiz-adv-x="745" 
d="M190 1199h57q38 0 38 -114l153 -38q78 152 114 152l95 -95v-1028l-38 -38l-57 57h-19q0 -76 -38 -76h-38l-38 209q-219 -105 -343 -228q-43 0 -76 228l114 571l-38 191q49 209 114 209zM133 1009v-153q62 -109 133 -152h153v305l-57 -38h-172zM171 552v-267l19 -95h19
q210 57 210 115v323h-172z" />
    <glyph glyph-name="B" unicode="B" horiz-adv-x="829" 
d="M384 1823l19 -57q-114 -286 -114 -570v-228l247 228q209 -165 209 -284v-513q0 -107 -342 -399h-19q-200 233 -323 266v190l38 57v873q0 342 -209 342v19l19 19v19l190 -19h57zM289 855v-399l171 -190h57v551q-38 170 -95 170z" />
    <glyph glyph-name="B" unicode="b" horiz-adv-x="829" 
d="M384 1823l19 -57q-114 -286 -114 -570v-228l247 228q209 -165 209 -284v-513q0 -107 -342 -399h-19q-200 233 -323 266v190l38 57v873q0 342 -209 342v19l19 19v19l190 -19h57zM289 855v-399l171 -190h57v551q-38 170 -95 170z" />
    <glyph glyph-name="C" unicode="C" horiz-adv-x="558" 
d="M389 1207l156 -175v-59q-86 -136 -195 -136q-58 65 -58 117h-39l-19 -136v-409q39 -180 97 -195h78l78 59h19v-20l-253 -253h-39q-59 32 -214 253v117l19 234l-19 233v39q40 81 195 136z" />
    <glyph glyph-name="C" unicode="c" horiz-adv-x="558" 
d="M389 1207l156 -175v-59q-86 -136 -195 -136q-58 65 -58 117h-39l-19 -136v-409q39 -180 97 -195h78l78 59h19v-20l-253 -253h-39q-59 32 -214 253v117l19 234l-19 233v39q40 81 195 136z" />
    <glyph glyph-name="D" unicode="D" horiz-adv-x="829" 
d="M142 1801q226 -402 607 -842l-20 -568l20 -97l-391 -294h-20q-93 64 -294 313v176q0 488 157 587l117 79v39q-333 372 -391 372v19q0 33 117 79q51 125 98 137zM338 1096l-20 -137v-587l79 -137h117v646q0 104 -156 215h-20z" />
    <glyph glyph-name="D" unicode="d" horiz-adv-x="829" 
d="M142 1801q226 -402 607 -842l-20 -568l20 -97l-391 -294h-20q-93 64 -294 313v176q0 488 157 587l117 79v39q-333 372 -391 372v19q0 33 117 79q51 125 98 137zM338 1096l-20 -137v-587l79 -137h117v646q0 104 -156 215h-20z" />
    <glyph glyph-name="E" unicode="E" horiz-adv-x="609" 
d="M346 1192h39q153 -109 153 -231v-192q-167 -200 -288 -269l-19 -77v-77l154 -154l134 96l19 -19v-19l-250 -250h-38q-69 37 -173 192q-77 0 -77 58v634q0 38 115 77q0 73 135 96zM231 961v-384h19l115 115v135q-38 173 -96 173z" />
    <glyph glyph-name="E" unicode="e" horiz-adv-x="609" 
d="M346 1192h39q153 -109 153 -231v-192q-167 -200 -288 -269l-19 -77v-77l154 -154l134 96l19 -19v-19l-250 -250h-38q-69 37 -173 192q-77 0 -77 58v634q0 38 115 77q0 73 135 96zM231 961v-384h19l115 115v135q-38 173 -96 173z" />
    <glyph glyph-name="F" unicode="F" horiz-adv-x="587" 
d="M582 1764q174 -51 174 -78l-116 -96h-194l-78 58h-19l-19 -427v-19h174l39 -39q-110 -155 -213 -155q0 -682 77 -969l-19 -20h-20l-38 97h-20l-174 -116h-39l-39 39v271l39 58v659h-97v78q40 77 97 77v349q273 233 485 233z" />
    <glyph glyph-name="F" unicode="f" horiz-adv-x="587" 
d="M582 1764q174 -51 174 -78l-116 -96h-194l-78 58h-19l-19 -427v-19h174l39 -39q-110 -155 -213 -155q0 -682 77 -969l-19 -20h-20l-38 97h-20l-174 -116h-39l-39 39v271l39 58v659h-97v78q40 77 97 77v349q273 233 485 233z" />
    <glyph glyph-name="G" unicode="G" horiz-adv-x="792" 
d="M364 1195h21l290 -269v-144l-21 -145l21 -186v-269q-34 -83 -124 -83v-41q102 -3 227 -289v-21l-41 -41h-145q-69 0 -290 -125h-20q-36 42 -289 63l-125 -21v21l352 351l-207 227v62l20 600zM282 988l-21 -641l-21 -20l207 -228l21 103v642q-52 0 -166 144h-20zM137 -190
q165 0 165 -62h228v21q-48 102 -186 206zM96 -190v-41h20v41h-20z" />
    <glyph glyph-name="G" unicode="g" horiz-adv-x="792" 
d="M364 1195h21l290 -269v-144l-21 -145l21 -186v-269q-34 -83 -124 -83v-41q102 -3 227 -289v-21l-41 -41h-145q-69 0 -290 -125h-20q-36 42 -289 63l-125 -21v21l352 351l-207 227v62l20 600zM282 988l-21 -641l-21 -20l207 -228l21 103v642q-52 0 -166 144h-20zM137 -190
q165 0 165 -62h228v21q-48 102 -186 206zM96 -190v-41h20v41h-20z" />
    <glyph glyph-name="H" unicode="H" horiz-adv-x="894" 
d="M-216 1750l234 -20h410l39 -39v-39q-117 -122 -117 -273v-390h39l234 215q234 -171 234 -371v-430q0 -288 -390 -585q-78 -117 -78 -214l58 -78l-39 -40h-39l-39 40v117q0 142 273 409l20 176v605l-98 156h-39l-136 -78v-800l19 -98h-19l-98 78q-123 -10 -195 -78l-20 59
q51 0 78 663v683q0 221 -351 273v20l20 19v20z" />
    <glyph glyph-name="H" unicode="h" horiz-adv-x="894" 
d="M-216 1750l234 -20h410l39 -39v-39q-117 -122 -117 -273v-390h39l234 215q234 -171 234 -371v-430q0 -288 -390 -585q-78 -117 -78 -214l58 -78l-39 -40h-39l-39 40v117q0 142 273 409l20 176v605l-98 156h-39l-136 -78v-800l19 -98h-19l-98 78q-123 -10 -195 -78l-20 59
q51 0 78 663v683q0 221 -351 273v20l20 19v20z" />
    <glyph glyph-name="I" unicode="I" horiz-adv-x="536" 
d="M430 1486h20l39 -39v-39q-10 -57 -293 -137l-157 -176l-19 20v19q206 352 410 352zM137 1193h39q91 -59 176 -215v-39l-39 -59v-763l39 -58v-20l-39 -39q-39 0 -78 117h-20l-137 -117h-19l-39 39v157l39 58v606q-59 0 -59 39v40z" />
    <glyph glyph-name="I" unicode="i" horiz-adv-x="536" 
d="M430 1486h20l39 -39v-39q-10 -57 -293 -137l-157 -176l-19 20v19q206 352 410 352zM137 1193h39q91 -59 176 -215v-39l-39 -59v-763l39 -58v-20l-39 -39q-39 0 -78 117h-20l-137 -117h-19l-39 39v157l39 58v606q-59 0 -59 39v40z" />
    <glyph glyph-name="J" unicode="J" horiz-adv-x="389" 
d="M445 1390l34 -52q0 -61 -326 -120v-17q171 -137 171 -241l-51 -51v-688q51 -176 51 -567l-17 -17h-17l-69 86q-61 -19 -137 -104l-17 18h-18l18 635v602l-52 69v69l103 120v34l-51 -34h-35v17q0 124 413 241z" />
    <glyph glyph-name="J" unicode="j" horiz-adv-x="389" 
d="M445 1390l34 -52q0 -61 -326 -120v-17q171 -137 171 -241l-51 -51v-688q51 -176 51 -567l-17 -17h-17l-69 86q-61 -19 -137 -104l-17 18h-18l18 635v602l-52 69v69l103 120v34l-51 -34h-35v17q0 124 413 241z" />
    <glyph glyph-name="K" unicode="K" horiz-adv-x="771" 
d="M-100 1779q198 -24 232 -58h19l58 39h174l39 -39v-19q-97 0 -97 -696l213 193h58q135 -79 135 -232v-136q0 -40 -174 -135v-39q92 -140 174 -406q78 0 78 -38q-46 -98 -194 -213q-213 141 -213 464l-77 58v-39l19 -406l-19 -19h-19l-58 58h-20q0 -60 -96 -116h-39l-39 39
v599l39 58v851q-89 174 -232 174v19zM286 870v-19l39 -58v-155q103 0 232 155v77q-67 174 -97 174z" />
    <glyph glyph-name="K" unicode="k" horiz-adv-x="771" 
d="M-100 1779q198 -24 232 -58h19l58 39h174l39 -39v-19q-97 0 -97 -696l213 193h58q135 -79 135 -232v-136q0 -40 -174 -135v-39q92 -140 174 -406q78 0 78 -38q-46 -98 -194 -213q-213 141 -213 464l-77 58v-39l19 -406l-19 -19h-19l-58 58h-20q0 -60 -96 -116h-39l-39 39
v599l39 58v851q-89 174 -232 174v19zM286 870v-19l39 -58v-155q103 0 232 155v77q-67 174 -97 174z" />
    <glyph glyph-name="L" unicode="L" horiz-adv-x="396" 
d="M-107 1794h453l20 -20h19l-59 -414v-1143l40 -59v-79l-40 -40l-79 40l-138 -79l-39 39l20 1400v158q-47 118 -158 118q-79 0 -79 40z" />
    <glyph glyph-name="L" unicode="l" horiz-adv-x="396" 
d="M-107 1794h453l20 -20h19l-59 -414v-1143l40 -59v-79l-40 -40l-79 40l-138 -79l-39 39l20 1400v158q-47 118 -158 118q-79 0 -79 40z" />
    <glyph glyph-name="M" unicode="M" horiz-adv-x="1189" 
d="M477 1199l177 -177h39q173 157 216 157q85 0 217 -197v-844l39 -59v-20l-59 -59q-39 0 -39 59l-177 -59l-20 20l20 432v471q0 40 -118 79l-59 -20l-20 -491v-177l20 -294l-20 -20h-19l-40 79q-61 0 -137 -79l-20 20h-19l19 334v530l-98 98l-79 -19v-904l-39 -39l-39 39
h-40l-78 -59h-20l-19 20h-20l20 334v589l-40 39l-58 -39h-40v20q177 177 177 216h39q37 0 118 -157h20z" />
    <glyph glyph-name="M" unicode="m" horiz-adv-x="1189" 
d="M477 1199l177 -177h39q173 157 216 157q85 0 217 -197v-844l39 -59v-20l-59 -59q-39 0 -39 59l-177 -59l-20 20l20 432v471q0 40 -118 79l-59 -20l-20 -491v-177l20 -294l-20 -20h-19l-40 79q-61 0 -137 -79l-20 20h-19l19 334v530l-98 98l-79 -19v-904l-39 -39l-39 39
h-40l-78 -59h-20l-19 20h-20l20 334v589l-40 39l-58 -39h-40v20q177 177 177 216h39q37 0 118 -157h20z" />
    <glyph glyph-name="N" unicode="N" horiz-adv-x="741" 
d="M83 1188h19l156 -156h19l195 175l214 -234v-915l-19 -19v-20l-98 20l-116 -39l-20 19l20 487v370l-117 117l-59 -214v-701l-58 -59l-58 59l-98 -59h-58v20l39 58v837l-58 59l-59 -20v20q57 126 156 195z" />
    <glyph glyph-name="N" unicode="n" horiz-adv-x="741" 
d="M83 1188h19l156 -156h19l195 175l214 -234v-915l-19 -19v-20l-98 20l-116 -39l-20 19l20 487v370l-117 117l-59 -214v-701l-58 -59l-58 59l-98 -59h-58v20l39 58v837l-58 59l-59 -20v20q57 126 156 195z" />
    <glyph glyph-name="O" unicode="0" horiz-adv-x="653" 
d="M327 1192q122 -53 269 -231v-750q-172 -211 -308 -211h-57q-231 204 -231 250v654zM231 1000l-39 -289v-307q0 -141 154 -250h58v615q0 103 -173 231z" />
    <glyph glyph-name="O" unicode="o" horiz-adv-x="653" 
d="M327 1192q122 -53 269 -231v-750q-172 -211 -308 -211h-57q-231 204 -231 250v654zM231 1000l-39 -289v-307q0 -141 154 -250h58v615q0 103 -173 231z" />
    <glyph glyph-name="O" unicode="O" horiz-adv-x="653" 
d="M327 1192q122 -53 269 -231v-750q-172 -211 -308 -211h-57q-231 204 -231 250v654zM231 1000l-39 -289v-307q0 -141 154 -250h58v615q0 103 -173 231z" />
    <glyph glyph-name="P" unicode="P" horiz-adv-x="772" 
d="M95 1180l155 -156l214 175h19l214 -214v-679l-253 -233h-19q-82 58 -155 58l19 -19v-466l39 -58v-78l-39 -39l-78 59h-38l-78 -59q-29 0 -58 78l19 272v39l-19 77l19 78v97h-58l-77 -59h-20l-39 39l194 233v583q-31 77 -116 77v39zM270 927v-563l39 -39h155v563l-117 117
z" />
    <glyph glyph-name="P" unicode="p" horiz-adv-x="772" 
d="M95 1180l155 -156l214 175h19l214 -214v-679l-253 -233h-19q-82 58 -155 58l19 -19v-466l39 -58v-78l-39 -39l-78 59h-38l-78 -59q-29 0 -58 78l19 272v39l-19 77l19 78v97h-58l-77 -59h-20l-39 39l194 233v583q-31 77 -116 77v39zM270 927v-563l39 -39h155v563l-117 117
z" />
    <glyph glyph-name="Q" unicode="Q" horiz-adv-x="835" 
d="M291 1207q129 -187 166 -187h83l207 166l21 -21v-1079q36 -539 104 -539v-20l-42 -42h-21q-41 0 -41 62l-21 21h-21l-145 -125h-21l-41 42v187l41 62v477h-41q-221 -228 -311 -228l-208 269v664zM249 937l-41 -83v-477q110 -184 145 -187h41q120 68 166 145v291l-20 311
h-291z" />
    <glyph glyph-name="Q" unicode="q" horiz-adv-x="835" 
d="M291 1207q129 -187 166 -187h83l207 166l21 -21v-1079q36 -539 104 -539v-20l-42 -42h-21q-41 0 -41 62l-21 21h-21l-145 -125h-21l-41 42v187l41 62v477h-41q-221 -228 -311 -228l-208 269v664zM249 937l-41 -83v-477q110 -184 145 -187h41q120 68 166 145v291l-20 311
h-291z" />
    <glyph glyph-name="R" unicode="R" horiz-adv-x="807" 
d="M93 1199l163 -183h61q0 60 142 142l20 21h41l244 -204l-142 -142h-21q-83 0 -223 142l-61 -61v-751l40 -61v-61l-40 -41q-55 0 -61 102h-21l-101 -102h-20l-41 41v853l-81 81l-81 -61h-21v21z" />
    <glyph glyph-name="R" unicode="r" horiz-adv-x="807" 
d="M93 1199l163 -183h61q0 60 142 142l20 21h41l244 -204l-142 -142h-21q-83 0 -223 142l-61 -61v-751l40 -61v-61l-40 -41q-55 0 -61 102h-21l-101 -102h-20l-41 41v853l-81 81l-81 -61h-21v21z" />
    <glyph glyph-name="S" unicode="S" horiz-adv-x="983" 
d="M984 1263l21 -21v-42q0 -136 -228 -289h-248q-80 0 -187 103h-20l-21 -145q65 -90 414 -145q207 -161 207 -351l-518 -373l-248 310l-104 21h-103v21q86 118 186 165h104q137 0 310 -289l83 82v166q-559 145 -559 290l-21 103l414 331l104 -62h269z" />
    <glyph glyph-name="S" unicode="s" horiz-adv-x="983" 
d="M984 1263l21 -21v-42q0 -136 -228 -289h-248q-80 0 -187 103h-20l-21 -145q65 -90 414 -145q207 -161 207 -351l-518 -373l-248 310l-104 21h-103v21q86 118 186 165h104q137 0 310 -289l83 82v166q-559 145 -559 290l-21 103l414 331l104 -62h269z" />
    <glyph glyph-name="T" unicode="T" horiz-adv-x="660" 
d="M483 1581q42 0 42 -63q-24 -253 -105 -253v-63h147l42 -43v-63l-84 -84h-105v-485l-21 -126q0 -169 168 -169l21 -21v-21q-162 -190 -253 -190q-120 88 -168 190v189l42 64v126l-42 63v64l42 63v274l-210 -21l-43 63v42q71 100 527 464z" />
    <glyph glyph-name="T" unicode="t" horiz-adv-x="660" 
d="M483 1581q42 0 42 -63q-24 -253 -105 -253v-63h147l42 -43v-63l-84 -84h-105v-485l-21 -126q0 -169 168 -169l21 -21v-21q-162 -190 -253 -190q-120 88 -168 190v189l42 64v126l-42 63v64l42 63v274l-210 -21l-43 63v42q71 100 527 464z" />
    <glyph glyph-name="U" unicode="U" horiz-adv-x="954" 
d="M151 1206l215 -216v-624l22 -151h107l86 86v582q0 43 -107 43l-22 21v22q50 106 194 215q194 -143 194 -258v-646l107 -65l65 22v-43q-143 -194 -258 -194q-123 172 -237 172l-172 -172h-44l-193 215v646l-108 86z" />
    <glyph glyph-name="U" unicode="u" horiz-adv-x="954" 
d="M151 1206l215 -216v-624l22 -151h107l86 86v582q0 43 -107 43l-22 21v22q50 106 194 215q194 -143 194 -258v-646l107 -65l65 22v-43q-143 -194 -258 -194q-123 172 -237 172l-172 -172h-44l-193 215v646l-108 86z" />
    <glyph glyph-name="V" unicode="V" horiz-adv-x="902" 
d="M103 1205h21l191 -190h42l211 190h85q84 0 169 -275v-528q0 -161 -338 -339l-64 -63q-280 211 -338 317l-21 106v148l42 63v85q0 254 -147 254h-22v42q49 102 169 190zM357 825v-423l190 -191h21v698l-105 106q-106 -37 -106 -190z" />
    <glyph glyph-name="V" unicode="v" horiz-adv-x="902" 
d="M103 1205h21l191 -190h42l211 190h85q84 0 169 -275v-528q0 -161 -338 -339l-64 -63q-280 211 -338 317l-21 106v148l42 63v85q0 254 -147 254h-22v42q49 102 169 190zM357 825v-423l190 -191h21v698l-105 106q-106 -37 -106 -190z" />
    <glyph glyph-name="W" unicode="W" horiz-adv-x="1299" 
d="M535 1202h42q39 0 124 -165l21 -21h41l228 186h21q228 -170 228 -394v-352q0 -244 -435 -456h-21l-249 269l-249 -248h-41q-187 142 -187 290l42 187v393l-62 63l-62 -42h-42v42l166 228h41q63 -35 228 -270v-414q0 -42 -62 -42v-62q71 0 83 -166h21q124 84 124 207v394
q0 108 -62 125h-124v41zM784 891v-518l124 -145h83v643l-103 103h-21z" />
    <glyph glyph-name="W" unicode="w" horiz-adv-x="1299" 
d="M535 1202h42q39 0 124 -165l21 -21h41l228 186h21q228 -170 228 -394v-352q0 -244 -435 -456h-21l-249 269l-249 -248h-41q-187 142 -187 290l42 187v393l-62 63l-62 -42h-42v42l166 228h41q63 -35 228 -270v-414q0 -42 -62 -42v-62q71 0 83 -166h21q124 84 124 207v394
q0 108 -62 125h-124v41zM784 891v-518l124 -145h83v643l-103 103h-21z" />
    <glyph glyph-name="X" unicode="X" horiz-adv-x="983" 
d="M295 1193q76 -14 227 -186h41v104l104 82h20l83 -62h206l82 62l21 -21v-20q0 -144 -248 -248h-41l-206 62v-268h62q85 0 165 103h20l42 -41v-82q-96 -145 -248 -145v-185l103 -124h42l103 82l20 -20v-41l-247 -247h-62q-144 74 -144 143h-62q-164 -515 -289 -515h-144
l-62 62v42l83 103h21l102 -83h41q98 0 207 412v268l-42 41h-41q-69 0 -144 -61q-41 0 -41 61q0 158 247 227v186q-82 123 -165 123v-20q0 -62 -41 -62h-21v62q136 206 206 206z" />
    <glyph glyph-name="X" unicode="x" horiz-adv-x="983" 
d="M295 1193q76 -14 227 -186h41v104l104 82h20l83 -62h206l82 62l21 -21v-20q0 -144 -248 -248h-41l-206 62v-268h62q85 0 165 103h20l42 -41v-82q-96 -145 -248 -145v-185l103 -124h42l103 82l20 -20v-41l-247 -247h-62q-144 74 -144 143h-62q-164 -515 -289 -515h-144
l-62 62v42l83 103h21l102 -83h41q98 0 207 412v268l-42 41h-41q-69 0 -144 -61q-41 0 -41 61q0 158 247 227v186q-82 123 -165 123v-20q0 -62 -41 -62h-21v62q136 206 206 206z" />
    <glyph glyph-name="Y" unicode="Y" horiz-adv-x="800" 
d="M532 1199l197 -256v-454q0 -210 -375 -453q-158 -209 -158 -296v-59l79 -98l-59 -60l-99 99v59q0 224 178 374l-217 217v631l-39 40h-39l-60 -20v20q71 169 158 217h19l158 -158h79q0 79 79 79zM315 745v-394l157 -98v631l-78 78q-50 0 -79 -217z" />
    <glyph glyph-name="Y" unicode="y" horiz-adv-x="800" 
d="M532 1199l197 -256v-454q0 -210 -375 -453q-158 -209 -158 -296v-59l79 -98l-59 -60l-99 99v59q0 224 178 374l-217 217v631l-39 40h-39l-60 -20v20q71 169 158 217h19l158 -158h79q0 79 79 79zM315 745v-394l157 -98v631l-78 78q-50 0 -79 -217z" />
    <glyph glyph-name="Z" unicode="Z" horiz-adv-x="858" 
d="M183 1199h61l101 -61l387 20l20 -61l-203 -304v-21h122l61 41h20l41 -41v-61l-143 -142h-223q0 -63 -102 -122v41l41 101l-102 41l-203 -81v81q137 183 264 183h81l61 -41q76 83 163 285h-20q-150 -102 -325 -102h-102l-61 41h-41l-61 -41l-20 20v21zM325 447
q0 -102 122 -102l163 -121l142 101l41 -40l-285 -285h-41q-197 163 -284 163q0 -60 -81 -102h-21v20q188 340 244 366z" />
    <glyph glyph-name="Z" unicode="z" horiz-adv-x="858" 
d="M183 1199h61l101 -61l387 20l20 -61l-203 -304v-21h122l61 41h20l41 -41v-61l-143 -142h-223q0 -63 -102 -122v41l41 101l-102 41l-203 -81v81q137 183 264 183h81l61 -41q76 83 163 285h-20q-150 -102 -325 -102h-102l-61 41h-41l-61 -41l-20 20v21zM325 447
q0 -102 122 -102l163 -121l142 101l41 -40l-285 -285h-41q-197 163 -284 163q0 -60 -81 -102h-21v20q188 340 244 366z" />
    <glyph glyph-name="backslash" unicode="\" horiz-adv-x="778" 
d="M64 1186q33 -6 677 -1144l-42 -42q-424 593 -445 741q-254 296 -254 381v42l42 43z" />
    <glyph glyph-name="asciicircum" unicode="^" horiz-adv-x="653" 
d="M302 1603h20q49 0 280 -370h-60l-240 264q-190 -264 -220 -264h-60v35q211 296 280 335z" />
    <glyph glyph-name="asciicircum" unicode="&#x2c6;" horiz-adv-x="653" 
d="M302 1603h20q49 0 280 -370h-60l-240 264q-190 -264 -220 -264h-60v35q211 296 280 335z" />
    <glyph glyph-name="underscore" unicode="_" horiz-adv-x="1139" 
d="M1149 -3h-1127v75h1127v-75z" />
    <glyph glyph-name="grave" unicode="`" horiz-adv-x="545" 
d="M469 1324v-19l-19 -20l-157 176q-284 80 -293 137v39l39 39h20q204 0 410 -352z" />
    <glyph glyph-name="bar" unicode="|" horiz-adv-x="198" 
d="M119 1855v-1864h-81v1864h81z" />
    <glyph glyph-name="asciitilde" unicode="~" horiz-adv-x="792" 
d="M231 1446q288 -139 405 -139q67 0 67 93h45q-45 -144 -112 -162h-23l-405 139h-45q-56 0 -67 -93h-45v23q46 139 180 139z" />
    <glyph glyph-name="asciitilde" unicode="&#x2dc;" horiz-adv-x="792" 
d="M231 1446q288 -139 405 -139q67 0 67 93h45q-45 -144 -112 -162h-23l-405 139h-45q-56 0 -67 -93h-45v23q46 139 180 139z" />
    <glyph glyph-name="Adieresis" unicode="&#xc4;" horiz-adv-x="726" 
d="M190 1199h57q38 0 38 -114l153 -38q78 152 114 152l95 -95v-1028l-38 -38l-57 57h-19q0 -76 -38 -76h-38l-38 209q-219 -105 -343 -228q-43 0 -76 228l114 571l-38 191q49 209 114 209zM133 1009v-153q62 -109 133 -152h153v305l-57 -38h-172zM171 552v-267l19 -95h19
q210 57 210 115v323h-172zM144 1456h13q88 -78 88 -121q0 -17 -88 -95h-7q-60 45 -60 81h-21q0 -30 -27 -47h-6q-14 0 -14 20l81 135zM481 1456h13q88 -78 88 -121q0 -17 -88 -95h-7q-60 45 -60 81h-21q0 -30 -27 -47h-6q-14 0 -14 20l81 135z" />
    <glyph glyph-name="Adieresis" unicode="&#xe4;" horiz-adv-x="726" 
d="M190 1199h57q38 0 38 -114l153 -38q78 152 114 152l95 -95v-1028l-38 -38l-57 57h-19q0 -76 -38 -76h-38l-38 209q-219 -105 -343 -228q-43 0 -76 228l114 571l-38 191q49 209 114 209zM133 1009v-153q62 -109 133 -152h153v305l-57 -38h-172zM171 552v-267l19 -95h19
q210 57 210 115v323h-172zM144 1456h13q88 -78 88 -121q0 -17 -88 -95h-7q-60 45 -60 81h-21q0 -30 -27 -47h-6q-14 0 -14 20l81 135zM481 1456h13q88 -78 88 -121q0 -17 -88 -95h-7q-60 45 -60 81h-21q0 -30 -27 -47h-6q-14 0 -14 20l81 135z" />
    <glyph glyph-name="Aring" unicode="&#xc5;" horiz-adv-x="697" 
d="M190 1199h57q38 0 38 -114l153 -38q78 152 114 152l95 -95v-1028l-38 -38l-57 57h-19q0 -76 -38 -76h-38l-38 209q-219 -105 -343 -228q-43 0 -76 228l114 571l-38 191q49 209 114 209zM133 1009v-153q62 -109 133 -152h153v305l-57 -38h-172zM171 552v-267l19 -95h19
q210 57 210 115v323h-172zM349 1478h13q88 -78 88 -121q0 -17 -88 -95h-7q-60 45 -60 81h-21q0 -30 -27 -47h-6q-14 0 -14 20l81 135z" />
    <glyph glyph-name="Aring" unicode="&#xe5;" horiz-adv-x="697" 
d="M190 1199h57q38 0 38 -114l153 -38q78 152 114 152l95 -95v-1028l-38 -38l-57 57h-19q0 -76 -38 -76h-38l-38 209q-219 -105 -343 -228q-43 0 -76 228l114 571l-38 191q49 209 114 209zM133 1009v-153q62 -109 133 -152h153v305l-57 -38h-172zM171 552v-267l19 -95h19
q210 57 210 115v323h-172zM349 1478h13q88 -78 88 -121q0 -17 -88 -95h-7q-60 45 -60 81h-21q0 -30 -27 -47h-6q-14 0 -14 20l81 135z" />
    <glyph glyph-name="Eacute" unicode="&#xc9;" 
d="M346 1192h39q153 -109 153 -231v-192q-167 -200 -288 -269l-19 -77v-77l154 -154l134 96l19 -19v-19l-250 -250h-38q-69 37 -173 192q-77 0 -77 58v634q0 38 115 77q0 73 135 96zM231 961v-384h19l115 115v135q-38 173 -96 173zM463 1515h19l39 -39v-39q-9 -57 -293 -137
l-156 -176l-20 20v19q207 352 411 352z" />
    <glyph glyph-name="Eacute" unicode="&#xe9;" 
d="M346 1192h39q153 -109 153 -231v-192q-167 -200 -288 -269l-19 -77v-77l154 -154l134 96l19 -19v-19l-250 -250h-38q-69 37 -173 192q-77 0 -77 58v634q0 38 115 77q0 73 135 96zM231 961v-384h19l115 115v135q-38 173 -96 173zM463 1515h19l39 -39v-39q-9 -57 -293 -137
l-156 -176l-20 20v19q207 352 411 352z" />
    <glyph glyph-name="Ntilde" unicode="&#xd1;" horiz-adv-x="825" 
d="M156 1188h19l156 -156h19l195 175l214 -234v-915l-19 -19v-20l-98 20l-116 -39l-20 19l20 487v370l-117 117l-59 -214v-701l-58 -59l-58 59l-98 -59h-58v20l39 58v837l-58 59l-59 -20v20q57 126 156 195zM245 1438q288 -139 405 -139q67 0 67 93h45q-45 -144 -112 -162
h-23l-405 139h-45q-56 0 -67 -93h-45v23q46 139 180 139z" />
    <glyph glyph-name="Ntilde" unicode="&#xf1;" horiz-adv-x="825" 
d="M156 1188h19l156 -156h19l195 175l214 -234v-915l-19 -19v-20l-98 20l-116 -39l-20 19l20 487v370l-117 117l-59 -214v-701l-58 -59l-58 59l-98 -59h-58v20l39 58v837l-58 59l-59 -20v20q57 126 156 195zM245 1438q288 -139 405 -139q67 0 67 93h45q-45 -144 -112 -162
h-23l-405 139h-45q-56 0 -67 -93h-45v23q46 139 180 139z" />
    <glyph glyph-name="Odieresis" unicode="&#xd6;" horiz-adv-x="668" 
d="M327 1192q122 -53 269 -231v-750q-172 -211 -308 -211h-57q-231 204 -231 250v654zM231 1000l-39 -289v-307q0 -141 154 -250h58v615q0 103 -173 231zM144 1456h13q88 -78 88 -121q0 -17 -88 -95h-7q-60 45 -60 81h-21q0 -30 -27 -47h-6q-14 0 -14 20l81 135zM481 1456
h13q88 -78 88 -121q0 -17 -88 -95h-7q-60 45 -60 81h-21q0 -30 -27 -47h-6q-14 0 -14 20l81 135z" />
    <glyph glyph-name="Odieresis" unicode="&#xf6;" horiz-adv-x="668" 
d="M327 1192q122 -53 269 -231v-750q-172 -211 -308 -211h-57q-231 204 -231 250v654zM231 1000l-39 -289v-307q0 -141 154 -250h58v615q0 103 -173 231zM144 1456h13q88 -78 88 -121q0 -17 -88 -95h-7q-60 45 -60 81h-21q0 -30 -27 -47h-6q-14 0 -14 20l81 135zM481 1456
h13q88 -78 88 -121q0 -17 -88 -95h-7q-60 45 -60 81h-21q0 -30 -27 -47h-6q-14 0 -14 20l81 135z" />
    <glyph glyph-name="Udieresis" unicode="&#xdc;" horiz-adv-x="924" 
d="M151 1206l215 -216v-624l22 -151h107l86 86v582q0 43 -107 43l-22 21v22q50 106 194 215q194 -143 194 -258v-646l107 -65l65 22v-43q-143 -194 -258 -194q-123 172 -237 172l-172 -172h-44l-193 215v646l-108 86zM306 1456h13q88 -78 88 -121q0 -17 -88 -95h-7
q-60 45 -60 81h-21q0 -30 -27 -47h-6q-14 0 -14 20l81 135zM643 1456h13q88 -78 88 -121q0 -17 -88 -95h-7q-60 45 -60 81h-21q0 -30 -27 -47h-6q-14 0 -14 20l81 135z" />
    <glyph glyph-name="Udieresis" unicode="&#xfc;" horiz-adv-x="924" 
d="M151 1206l215 -216v-624l22 -151h107l86 86v582q0 43 -107 43l-22 21v22q50 106 194 215q194 -143 194 -258v-646l107 -65l65 22v-43q-143 -194 -258 -194q-123 172 -237 172l-172 -172h-44l-193 215v646l-108 86zM306 1456h13q88 -78 88 -121q0 -17 -88 -95h-7
q-60 45 -60 81h-21q0 -30 -27 -47h-6q-14 0 -14 20l81 135zM643 1456h13q88 -78 88 -121q0 -17 -88 -95h-7q-60 45 -60 81h-21q0 -30 -27 -47h-6q-14 0 -14 20l81 135z" />
    <glyph glyph-name="aacute" unicode="&#xe1;" horiz-adv-x="701" 
d="M190 1199h57q38 0 38 -114l153 -38q78 152 114 152l95 -95v-1028l-38 -38l-57 57h-19q0 -76 -38 -76h-38l-38 209q-219 -105 -343 -228q-43 0 -76 228l114 571l-38 191q49 209 114 209zM133 1009v-153q62 -109 133 -152h153v305l-57 -38h-172zM171 552v-267l19 -95h19
q210 57 210 115v323h-172zM551 1648h19l39 -39v-39q-9 -57 -293 -137l-156 -176l-20 20v19q207 352 411 352z" />
    <glyph glyph-name="agrave" unicode="&#xe0;" horiz-adv-x="697" 
d="M190 1199h57q38 0 38 -114l153 -38q78 152 114 152l95 -95v-1028l-38 -38l-57 57h-19q0 -76 -38 -76h-38l-38 209q-219 -105 -343 -228q-43 0 -76 228l114 571l-38 191q49 209 114 209zM133 1009v-153q62 -109 133 -152h153v305l-57 -38h-172zM171 552v-267l19 -95h19
q210 57 210 115v323h-172zM557 1302v-19l-19 -20l-157 176q-284 80 -293 137v39l39 39h20q204 0 410 -352z" />
    <glyph glyph-name="acircumflex" unicode="&#xe2;" horiz-adv-x="726" 
d="M190 1199h57q38 0 38 -114l153 -38q78 152 114 152l95 -95v-1028l-38 -38l-57 57h-19q0 -76 -38 -76h-38l-38 209q-219 -105 -343 -228q-43 0 -76 228l114 571l-38 191q49 209 114 209zM133 1009v-153q62 -109 133 -152h153v305l-57 -38h-172zM171 552v-267l19 -95h19
q210 57 210 115v323h-172zM302 1603h20q49 0 280 -370h-60l-240 264q-190 -264 -220 -264h-60v35q211 296 280 335z" />
    <glyph glyph-name="atilde" unicode="&#xc3;" horiz-adv-x="759" 
d="M190 1199h57q38 0 38 -114l153 -38q78 152 114 152l95 -95v-1028l-38 -38l-57 57h-19q0 -76 -38 -76h-38l-38 209q-219 -105 -343 -228q-43 0 -76 228l114 571l-38 191q49 209 114 209zM133 1009v-153q62 -109 133 -152h153v305l-57 -38h-172zM171 552v-267l19 -95h19
q210 57 210 115v323h-172zM201 1461q288 -139 405 -139q67 0 67 93h45q-45 -144 -112 -162h-23l-405 139h-45q-56 0 -67 -93h-45v23q46 139 180 139z" />
    <glyph glyph-name="atilde" unicode="&#xe3;" horiz-adv-x="759" 
d="M190 1199h57q38 0 38 -114l153 -38q78 152 114 152l95 -95v-1028l-38 -38l-57 57h-19q0 -76 -38 -76h-38l-38 209q-219 -105 -343 -228q-43 0 -76 228l114 571l-38 191q49 209 114 209zM133 1009v-153q62 -109 133 -152h153v305l-57 -38h-172zM171 552v-267l19 -95h19
q210 57 210 115v323h-172zM201 1461q288 -139 405 -139q67 0 67 93h45q-45 -144 -112 -162h-23l-405 139h-45q-56 0 -67 -93h-45v23q46 139 180 139z" />
    <glyph glyph-name="egrave" unicode="&#xe8;" horiz-adv-x="587" 
d="M346 1192h39q153 -109 153 -231v-192q-167 -200 -288 -269l-19 -77v-77l154 -154l134 96l19 -19v-19l-250 -250h-38q-69 37 -173 192q-77 0 -77 58v634q0 38 115 77q0 73 135 96zM231 961v-384h19l115 115v135q-38 173 -96 173zM469 1324v-19l-19 -20l-157 176
q-284 80 -293 137v39l39 39h20q204 0 410 -352z" />
    <glyph glyph-name="ecircumflex" unicode="&#xea;" horiz-adv-x="638" 
d="M346 1192h39q153 -109 153 -231v-192q-167 -200 -288 -269l-19 -77v-77l154 -154l134 96l19 -19v-19l-250 -250h-38q-69 37 -173 192q-77 0 -77 58v634q0 38 115 77q0 73 135 96zM231 961v-384h19l115 115v135q-38 173 -96 173zM302 1603h20q49 0 280 -370h-60l-240 264
q-190 -264 -220 -264h-60v35q211 296 280 335z" />
    <glyph glyph-name="edieresis" unicode="&#xeb;" 
d="M346 1192h39q153 -109 153 -231v-192q-167 -200 -288 -269l-19 -77v-77l154 -154l134 96l19 -19v-19l-250 -250h-38q-69 37 -173 192q-77 0 -77 58v634q0 38 115 77q0 73 135 96zM231 961v-384h19l115 115v135q-38 173 -96 173zM166 1456h13q88 -78 88 -121
q0 -17 -88 -95h-7q-60 45 -60 81h-21q0 -30 -27 -47h-6q-14 0 -14 20l81 135zM503 1456h13q88 -78 88 -121q0 -17 -88 -95h-7q-60 45 -60 81h-21q0 -30 -27 -47h-6q-14 0 -14 20l81 135z" />
    <glyph glyph-name="oacute" unicode="&#xf3;" horiz-adv-x="653" 
d="M327 1192q122 -53 269 -231v-750q-172 -211 -308 -211h-57q-231 204 -231 250v654zM231 1000l-39 -289v-307q0 -141 154 -250h58v615q0 103 -173 231zM478 1523h19l39 -39v-39q-9 -57 -293 -137l-156 -176l-20 20v19q207 352 411 352z" />
    <glyph glyph-name="ograve" unicode="&#xf2;" horiz-adv-x="660" 
d="M327 1192q122 -53 269 -231v-750q-172 -211 -308 -211h-57q-231 204 -231 250v654zM231 1000l-39 -289v-307q0 -141 154 -250h58v615q0 103 -173 231zM550 1244v-19l-19 -20l-157 176q-284 80 -293 137v39l39 39h20q204 0 410 -352z" />
    <glyph glyph-name="ocircumflex" unicode="&#xf4;" horiz-adv-x="682" 
d="M327 1192q122 -53 269 -231v-750q-172 -211 -308 -211h-57q-231 204 -231 250v654zM231 1000l-39 -289v-307q0 -141 154 -250h58v615q0 103 -173 231zM302 1603h20q49 0 280 -370h-60l-240 264q-190 -264 -220 -264h-60v35q211 296 280 335z" />
    <glyph glyph-name="otilde" unicode="&#xf5;" horiz-adv-x="675" 
d="M327 1192q122 -53 269 -231v-750q-172 -211 -308 -211h-57q-231 204 -231 250v654zM231 1000l-39 -289v-307q0 -141 154 -250h58v615q0 103 -173 231zM194 1439q288 -139 405 -139q67 0 67 93h45q-45 -144 -112 -162h-23l-405 139h-45q-56 0 -67 -93h-45v23
q46 139 180 139z" />
    <glyph glyph-name="uacute" unicode="&#xfa;" horiz-adv-x="968" 
d="M151 1206l215 -216v-624l22 -151h107l86 86v582q0 43 -107 43l-22 21v22q50 106 194 215q194 -143 194 -258v-646l107 -65l65 22v-43q-143 -194 -258 -194q-123 172 -237 172l-172 -172h-44l-193 215v646l-108 86zM653 1626h19l39 -39v-39q-9 -57 -293 -137l-156 -176
l-20 20v19q207 352 411 352z" />
    <glyph glyph-name="ugrave" unicode="&#xf9;" horiz-adv-x="968" 
d="M151 1206l215 -216v-624l22 -151h107l86 86v582q0 43 -107 43l-22 21v22q50 106 194 215q194 -143 194 -258v-646l107 -65l65 22v-43q-143 -194 -258 -194q-123 172 -237 172l-172 -172h-44l-193 215v646l-108 86zM667 1272v-19l-19 -20l-157 176q-284 80 -293 137v39
l39 39h20q204 0 410 -352z" />
    <glyph glyph-name="ucircumflex" unicode="&#xfb;" horiz-adv-x="939" 
d="M151 1206l215 -216v-624l22 -151h107l86 86v582q0 43 -107 43l-22 21v22q50 106 194 215q194 -143 194 -258v-646l107 -65l65 22v-43q-143 -194 -258 -194q-123 172 -237 172l-172 -172h-44l-193 215v646l-108 86zM449 1603h20q49 0 280 -370h-60l-240 264
q-190 -264 -220 -264h-60v35q211 296 280 335z" />
    <glyph glyph-name="degree" unicode="&#xb0;" horiz-adv-x="819" 
d="M201 1596q85 0 143.5 -59t58.5 -143q0 -83 -59 -142t-143 -59q-83 0 -142 59t-59 142q0 84 58.5 143t142.5 59zM201 1541q-61 0 -103.5 -42.5t-42.5 -103.5t42.5 -103.5t103.5 -42.5t103.5 42.5t42.5 103.5t-42.5 103.5t-103.5 42.5z" />
    <glyph glyph-name="bullet" unicode="&#x2022;" horiz-adv-x="484" 
d="M238 1131q43 0 84 -22.5t64.5 -63.5t23.5 -86t-22.5 -86t-63.5 -63.5t-86 -22.5t-86 22.5t-63.5 63.5t-22.5 86t23 86t64 63.5t85 22.5z" />
    <glyph glyph-name="registered" unicode="&#xae;" horiz-adv-x="1471" 
d="M707 1386q181 0 350 -91t265 -262t96 -354q0 -186 -94 -354.5t-262.5 -262t-354.5 -93.5q-183 0 -351.5 93.5t-262 262t-93.5 354.5q0 183 95 354t265 262t347 91zM707 1327q-161 0 -317 -84.5t-242.5 -240t-86.5 -323.5q0 -169 86 -323t240 -239.5t320 -85.5
q169 0 323.5 85.5t239.5 239.5t85 323q0 168 -86.5 323.5t-241.5 240t-320 84.5zM316 1114h386q145 0 220.5 -65.5t75.5 -158.5q0 -75 -51 -133t-170 -89l209 -297q38 -55 68 -73q19 -12 53 -16v-34h-184l-294 405h-76v-308q6 -34 28.5 -48.5t90.5 -14.5v-34h-368v34
q48 0 68.5 11t28.5 34q7 17 7 93v522q0 75 -3 89q-7 22 -26 34.5t-63 12.5v36zM553 697q119 0 173 23t83 65t29 94q0 80 -57 135.5t-143 55.5q-40 0 -85 -15v-358z" />
    <glyph glyph-name="copyright" unicode="&#xa9;" horiz-adv-x="1509" 
d="M745 1495q188 0 366.5 -96t278.5 -274.5t100 -372.5t-98.5 -372t-276 -275.5t-370.5 -97.5q-194 0 -370.5 97.5t-275.5 275.5t-99 372t100.5 372.5t279 274.5t365.5 96zM745 1431q-171 0 -333.5 -88t-254.5 -251t-92 -340t90 -338.5t252 -252t338 -90.5t338 90.5
t252.5 252t90.5 338.5t-92 340t-254.5 251t-334.5 88zM1113 1230l22 -294h-41q-39 125 -120.5 186.5t-197.5 61.5q-87 0 -154 -36t-110 -95q-32 -46 -53 -121t-21 -156q0 -223 96 -328.5t252 -105.5q204 0 327 170l39 -20q-146 -213 -401 -213q-211 0 -349 136t-138 330
q0 201 147 343t375 142q50 0 81 -6t115 -33q25 -9 37 -9q17 0 29 9.5t24 38.5h41z" />
    <glyph glyph-name="acute" unicode="&#xb4;" horiz-adv-x="567" 
d="M448 1816h19l39 -39v-39q-9 -57 -293 -137l-156 -176l-20 20v19q207 352 411 352z" />
    <glyph glyph-name="dieresis" unicode="&#xa8;" horiz-adv-x="682" 
d="M166 1456h13q88 -78 88 -121q0 -17 -88 -95h-7q-60 45 -60 81h-21q0 -30 -27 -47h-6q-14 0 -14 20l81 135zM503 1456h13q88 -78 88 -121q0 -17 -88 -95h-7q-60 45 -60 81h-21q0 -30 -27 -47h-6q-14 0 -14 20l81 135z" />
    <glyph glyph-name="notequal" unicode="&#x2260;" horiz-adv-x="888" 
d="M298 1008h112l68 -45h134l179 45l45 -67q0 -74 -202 -202l-425 67l-180 -67l-22 23v22q126 224 291 224zM298 694h112l68 -45h134l179 45l45 -67q-126 -214 -202 -224q-275 0 -381 90h-44q-109 -90 -180 -90l-22 67q126 224 291 224zM699 1207l42 -43v-42
q0 -85 -254 -381q-21 -148 -445 -741l-42 42q644 1138 677 1144z" />
    <glyph glyph-name="AE" unicode="&#xc6;" horiz-adv-x="1167" 
d="M260 1199q38 -147 148 -147h21l126 126q105 0 105 -210l274 231h21q168 -105 168 -294v-106q-86 -128 -295 -294l-21 -126l148 -148h21l126 64v-22q-214 -252 -274 -252l-168 147q0 -126 -63 -126l-42 42h-21q0 -63 -42 -63q-63 21 -63 126v63h-21l-337 -210
q-63 82 -63 231l105 568l-42 169q43 231 189 231zM807 947v-358l127 126v63q-26 211 -84 211zM155 968v-148l126 -126h127v274l-105 -21h-43zM176 526v-189l21 -148q211 48 211 106v315h-148z" />
    <glyph glyph-name="AE" unicode="&#xe6;" horiz-adv-x="1167" 
d="M260 1199q38 -147 148 -147h21l126 126q105 0 105 -210l274 231h21q168 -105 168 -294v-106q-86 -128 -295 -294l-21 -126l148 -148h21l126 64v-22q-214 -252 -274 -252l-168 147q0 -126 -63 -126l-42 42h-21q0 -63 -42 -63q-63 21 -63 126v63h-21l-337 -210
q-63 82 -63 231l105 568l-42 169q43 231 189 231zM807 947v-358l127 126v63q-26 211 -84 211zM155 968v-148l126 -126h127v274l-105 -21h-43zM176 526v-189l21 -148q211 48 211 106v315h-148z" />
    <glyph glyph-name="Oslash" unicode="&#xd8;" horiz-adv-x="778" 
d="M327 1192q122 -53 269 -231v-750q-172 -211 -308 -211h-57q-231 204 -231 250v654zM231 1000l-39 -289v-307q0 -141 154 -250h58v615q0 103 -173 231zM699 1207l42 -43v-42q0 -85 -254 -381q-21 -148 -445 -741l-42 42q644 1138 677 1144z" />
    <glyph glyph-name="Oslash" unicode="&#xf8;" horiz-adv-x="778" 
d="M327 1192q122 -53 269 -231v-750q-172 -211 -308 -211h-57q-231 204 -231 250v654zM231 1000l-39 -289v-307q0 -141 154 -250h58v615q0 103 -173 231zM699 1207l42 -43v-42q0 -85 -254 -381q-21 -148 -445 -741l-42 42q644 1138 677 1144z" />
    <glyph glyph-name="plusminus" unicode="&#xb1;" horiz-adv-x="1124" 
d="M714 1192q45 0 45 -66q0 -101 -221 -353h88l155 22l44 -67q-104 -198 -243 -198h-177q-278 -507 -331 -530h-22q0 75 265 508l22 66l-132 22l-177 -66l-22 22v22q124 221 287 221h22l155 -22l154 309q43 100 88 110zM467 290h112l68 -45h134l179 45l45 -67
q0 -74 -202 -202l-425 67l-180 -67l-22 23v22q126 224 291 224z" />
    <glyph glyph-name="questiondown" unicode="&#xbf;" horiz-adv-x="1071" 
d="M204 317q-204 61 -204 91v45q0 41 159 136h22q221 0 408 -294l68 68v158q-362 85 -362 340l272 204h22v-226l23 -23q408 -65 408 -385l-589 -431zM317 1324v27h55l27 -27l81 81l136 -135l-109 -136h-54z" />
    <glyph glyph-name="exclamdown" unicode="&#xa1;" horiz-adv-x="380" 
d="M77 62v188l29 70v727q-43 0 -43 47v47q108 304 131 304q37 -22 131 -234v-70l-29 -71v-914l29 -71v-23l-29 -47q-40 0 -44 117h-44l-87 -117h-15zM117 1522l-117 194q0 29 19 29h10q39 -24 39 -68h29q0 52 87 117h10q126 -112 126 -136q0 -63 -126 -175h-19z" />
    <glyph glyph-name="Agrave" unicode="&#xc0;" horiz-adv-x="704" 
d="M190 1199h57q38 0 38 -114l153 -38q78 152 114 152l95 -95v-1028l-38 -38l-57 57h-19q0 -76 -38 -76h-38l-38 209q-219 -105 -343 -228q-43 0 -76 228l114 571l-38 191q49 209 114 209zM133 1009v-153q62 -109 133 -152h153v305l-57 -38h-172zM171 552v-267l19 -95h19
q210 57 210 115v323h-172zM550 1288v-19l-19 -20l-157 176q-284 80 -293 137v39l39 39h20q204 0 410 -352z" />
    <glyph glyph-name="Otilde" unicode="&#xd5;" horiz-adv-x="690" 
d="M327 1192q122 -53 269 -231v-750q-172 -211 -308 -211h-57q-231 204 -231 250v654zM231 1000l-39 -289v-307q0 -141 154 -250h58v615q0 103 -173 231zM231 1446q288 -139 405 -139q67 0 67 93h45q-45 -144 -112 -162h-23l-405 139h-45q-56 0 -67 -93h-45v23
q46 139 180 139z" />
    <glyph glyph-name="OE" unicode="&#x152;" horiz-adv-x="1115" 
d="M373 1201l227 -207l249 207h21q186 -88 186 -290v-124q0 -36 -311 -290l-20 -124q103 -145 165 -145l145 62v-21q-239 -269 -290 -269l-186 186q-103 -186 -248 -186h-21q-117 0 -290 248v601q0 148 373 352zM248 994q0 -184 -62 -269v-332q69 -142 166 -207h62v518
q0 190 -166 290zM725 952v-372l124 124v62q-31 228 -83 228z" />
    <glyph glyph-name="OE" unicode="&#x153;" horiz-adv-x="1115" 
d="M373 1201l227 -207l249 207h21q186 -88 186 -290v-124q0 -36 -311 -290l-20 -124q103 -145 165 -145l145 62v-21q-239 -269 -290 -269l-186 186q-103 -186 -248 -186h-21q-117 0 -290 248v601q0 148 373 352zM248 994q0 -184 -62 -269v-332q69 -142 166 -207h62v518
q0 190 -166 290zM725 952v-372l124 124v62q-31 228 -83 228z" />
    <glyph glyph-name="divide" unicode="&#xf7;" horiz-adv-x="931" 
d="M349 795h112l68 -45h134l179 45l45 -67q0 -74 -202 -202l-425 67l-180 -67l-22 23v22q126 224 291 224zM482 443h13q88 -78 88 -121q0 -17 -88 -95h-7q-60 45 -60 81h-21q0 -30 -27 -47h-6q-14 0 -14 20l81 135zM482 1118h13q88 -78 88 -121q0 -17 -88 -95h-7
q-60 45 -60 81h-21q0 -30 -27 -47h-6q-14 0 -14 20l81 135z" />
    <glyph glyph-name="Ydieresis" unicode="&#x177;" horiz-adv-x="838" 
d="M592 1199l197 -256v-454q0 -210 -375 -453q-158 -209 -158 -296v-59l79 -98l-59 -60l-99 99v59q0 224 178 374l-217 217v631l-39 40h-39l-60 -20v20q71 169 158 217h19l158 -158h79q0 79 79 79zM375 745v-394l157 -98v631l-78 78q-50 0 -79 -217zM226 1456h13
q88 -78 88 -121q0 -17 -88 -95h-7q-60 45 -60 81h-21q0 -30 -27 -47h-6q-14 0 -14 20l81 135zM563 1456h13q88 -78 88 -121q0 -17 -88 -95h-7q-60 45 -60 81h-21q0 -30 -27 -47h-6q-14 0 -14 20l81 135z" />
    <glyph glyph-name="Ydieresis" unicode="&#x178;" horiz-adv-x="838" 
d="M592 1199l197 -256v-454q0 -210 -375 -453q-158 -209 -158 -296v-59l79 -98l-59 -60l-99 99v59q0 224 178 374l-217 217v631l-39 40h-39l-60 -20v20q71 169 158 217h19l158 -158h79q0 79 79 79zM375 745v-394l157 -98v631l-78 78q-50 0 -79 -217zM226 1456h13
q88 -78 88 -121q0 -17 -88 -95h-7q-60 45 -60 81h-21q0 -30 -27 -47h-6q-14 0 -14 20l81 135zM563 1456h13q88 -78 88 -121q0 -17 -88 -95h-7q-60 45 -60 81h-21q0 -30 -27 -47h-6q-14 0 -14 20l81 135z" />
    <glyph glyph-name="Euro" unicode="&#x20ac;" horiz-adv-x="712" 
d="M504 1192h18l149 -172v-57q-125 -138 -178 -138q-80 79 -80 98q0 18 -29 34l-29 -103v-109l12 -11h132l137 17q40 -29 40 -40q0 -46 -177 -121h-18q-52 17 -126 23v-28l12 -12h132l137 17l40 -34v-12q-104 -114 -189 -114h-6l-126 23v-75q61 -154 86 -154h86l86 80
l23 -23v-6q-207 -218 -223 -218v-28l-29 -29h-57l-201 252v206l-103 -28q-23 8 -23 17v17q98 115 155 115v51h-6l-120 -40q-29 4 -29 17v23q21 29 126 109v132q76 92 109 92q45 0 269 229z" />
    <glyph glyph-name="periodcentered" unicode="&#xb7;" horiz-adv-x="271" 
d="M136 1096h13q88 -78 88 -121q0 -17 -88 -95h-7q-60 45 -60 81h-21q0 -30 -27 -47h-6q-14 0 -14 20l81 135z" />
    <glyph glyph-name="periodcentered" unicode="&#x2219;" horiz-adv-x="271" 
d="M136 1096h13q88 -78 88 -121q0 -17 -88 -95h-7q-60 45 -60 81h-21q0 -30 -27 -47h-6q-14 0 -14 20l81 135z" />
    <glyph glyph-name="quotesinglbase" unicode="&#x201a;" horiz-adv-x="205" 
d="M128 407l15 -11v-78l-75 -100l15 -11v-11l-15 -67l15 -11v-11l-15 -11h-16l-45 122q0 189 121 189z" />
    <glyph glyph-name="quotedblbase" unicode="&#x201e;" horiz-adv-x="410" 
d="M121 400l15 -11v-78l-75 -100l15 -11v-11l-15 -67l15 -11v-11l-15 -11h-16l-45 122q0 189 121 189zM334 400l15 -11v-78l-75 -100l15 -11v-11l-15 -67l15 -11v-11l-15 -11h-16l-45 122q0 189 121 189z" />
    <glyph glyph-name="Acircumflex" unicode="&#xc2;" horiz-adv-x="741" 
d="M190 1199h57q38 0 38 -114l153 -38q78 152 114 152l95 -95v-1028l-38 -38l-57 57h-19q0 -76 -38 -76h-38l-38 209q-219 -105 -343 -228q-43 0 -76 228l114 571l-38 191q49 209 114 209zM133 1009v-153q62 -109 133 -152h153v305l-57 -38h-172zM171 552v-267l19 -95h19
q210 57 210 115v323h-172zM302 1603h20q49 0 280 -370h-60l-240 264q-190 -264 -220 -264h-60v35q211 296 280 335z" />
    <glyph glyph-name="Ecircumflex" unicode="&#xca;" horiz-adv-x="646" 
d="M346 1192h39q153 -109 153 -231v-192q-167 -200 -288 -269l-19 -77v-77l154 -154l134 96l19 -19v-19l-250 -250h-38q-69 37 -173 192q-77 0 -77 58v634q0 38 115 77q0 73 135 96zM231 961v-384h19l115 115v135q-38 173 -96 173zM302 1603h20q49 0 280 -370h-60l-240 264
q-190 -264 -220 -264h-60v35q211 296 280 335z" />
    <glyph glyph-name="Aacute" unicode="&#xc1;" horiz-adv-x="719" 
d="M190 1199h57q38 0 38 -114l153 -38q78 152 114 152l95 -95v-1028l-38 -38l-57 57h-19q0 -76 -38 -76h-38l-38 209q-219 -105 -343 -228q-43 0 -76 228l114 571l-38 191q49 209 114 209zM133 1009v-153q62 -109 133 -152h153v305l-57 -38h-172zM171 552v-267l19 -95h19
q210 57 210 115v323h-172zM572 1662h19l39 -39v-39q-9 -57 -293 -137l-156 -176l-20 20v19q207 352 411 352z" />
    <glyph glyph-name="Edieresis" unicode="&#xcb;" horiz-adv-x="638" 
d="M346 1192h39q153 -109 153 -231v-192q-167 -200 -288 -269l-19 -77v-77l154 -154l134 96l19 -19v-19l-250 -250h-38q-69 37 -173 192q-77 0 -77 58v634q0 38 115 77q0 73 135 96zM231 961v-384h19l115 115v135q-38 173 -96 173zM144 1456h13q88 -78 88 -121
q0 -17 -88 -95h-7q-60 45 -60 81h-21q0 -30 -27 -47h-6q-14 0 -14 20l81 135zM481 1456h13q88 -78 88 -121q0 -17 -88 -95h-7q-60 45 -60 81h-21q0 -30 -27 -47h-6q-14 0 -14 20l81 135z" />
    <glyph glyph-name="Egrave" unicode="&#xc8;" horiz-adv-x="587" 
d="M346 1192h39q153 -109 153 -231v-192q-167 -200 -288 -269l-19 -77v-77l154 -154l134 96l19 -19v-19l-250 -250h-38q-69 37 -173 192q-77 0 -77 58v634q0 38 115 77q0 73 135 96zM231 961v-384h19l115 115v135q-38 173 -96 173zM469 1324v-19l-19 -20l-157 176
q-284 80 -293 137v39l39 39h20q204 0 410 -352z" />
    <glyph glyph-name="Iacute" unicode="&#xcd;" horiz-adv-x="484" 
d="M137 1193h39q91 -59 176 -215v-39l-39 -59v-763l39 -58v-20l-39 -39q-39 0 -78 117h-20l-137 -117h-19l-39 39v157l39 58v606q-59 0 -59 39v40zM426 1625h19l39 -39v-39q-9 -57 -293 -137l-156 -176l-20 20v19q207 352 411 352z" />
    <glyph glyph-name="Iacute" unicode="&#xed;" horiz-adv-x="484" 
d="M137 1193h39q91 -59 176 -215v-39l-39 -59v-763l39 -58v-20l-39 -39q-39 0 -78 117h-20l-137 -117h-19l-39 39v157l39 58v606q-59 0 -59 39v40zM426 1625h19l39 -39v-39q-9 -57 -293 -137l-156 -176l-20 20v19q207 352 411 352z" />
    <glyph glyph-name="Icircumflex" unicode="&#xce;" horiz-adv-x="660" 
d="M328 1193h39q91 -59 176 -215v-39l-39 -59v-763l39 -58v-20l-39 -39q-39 0 -78 117h-20l-137 -117h-19l-39 39v157l39 58v606q-59 0 -59 39v40zM302 1603h20q49 0 280 -370h-60l-240 264q-190 -264 -220 -264h-60v35q211 296 280 335z" />
    <glyph glyph-name="Icircumflex" unicode="&#xee;" horiz-adv-x="660" 
d="M328 1193h39q91 -59 176 -215v-39l-39 -59v-763l39 -58v-20l-39 -39q-39 0 -78 117h-20l-137 -117h-19l-39 39v157l39 58v606q-59 0 -59 39v40zM302 1603h20q49 0 280 -370h-60l-240 264q-190 -264 -220 -264h-60v35q211 296 280 335z" />
    <glyph glyph-name="Idieresis" unicode="&#xcf;" horiz-adv-x="613" 
d="M247 1193h39q91 -59 176 -215v-39l-39 -59v-763l39 -58v-20l-39 -39q-39 0 -78 117h-20l-137 -117h-19l-39 39v157l39 58v606q-59 0 -59 39v40zM144 1456h13q88 -78 88 -121q0 -17 -88 -95h-7q-60 45 -60 81h-21q0 -30 -27 -47h-6q-14 0 -14 20l81 135zM481 1456h13
q88 -78 88 -121q0 -17 -88 -95h-7q-60 45 -60 81h-21q0 -30 -27 -47h-6q-14 0 -14 20l81 135z" />
    <glyph glyph-name="Idieresis" unicode="&#xef;" horiz-adv-x="613" 
d="M247 1193h39q91 -59 176 -215v-39l-39 -59v-763l39 -58v-20l-39 -39q-39 0 -78 117h-20l-137 -117h-19l-39 39v157l39 58v606q-59 0 -59 39v40zM144 1456h13q88 -78 88 -121q0 -17 -88 -95h-7q-60 45 -60 81h-21q0 -30 -27 -47h-6q-14 0 -14 20l81 135zM481 1456h13
q88 -78 88 -121q0 -17 -88 -95h-7q-60 45 -60 81h-21q0 -30 -27 -47h-6q-14 0 -14 20l81 135z" />
    <glyph glyph-name="Igrave" unicode="&#xcc;" horiz-adv-x="396" 
d="M137 1193h39q91 -59 176 -215v-39l-39 -59v-763l39 -58v-20l-39 -39q-39 0 -78 117h-20l-137 -117h-19l-39 39v157l39 58v606q-59 0 -59 39v40zM469 1324v-19l-19 -20l-157 176q-284 80 -293 137v39l39 39h20q204 0 410 -352z" />
    <glyph glyph-name="Igrave" unicode="&#xec;" horiz-adv-x="396" 
d="M137 1193h39q91 -59 176 -215v-39l-39 -59v-763l39 -58v-20l-39 -39q-39 0 -78 117h-20l-137 -117h-19l-39 39v157l39 58v606q-59 0 -59 39v40zM469 1324v-19l-19 -20l-157 176q-284 80 -293 137v39l39 39h20q204 0 410 -352z" />
    <glyph glyph-name="Oacute" unicode="&#xd3;" horiz-adv-x="657" 
d="M327 1192q122 -53 269 -231v-750q-172 -211 -308 -211h-57q-231 204 -231 250v654zM231 1000l-39 -289v-307q0 -141 154 -250h58v615q0 103 -173 231zM462 1530h19l39 -39v-39q-9 -57 -293 -137l-156 -176l-20 20v19q207 352 411 352z" />
    <glyph glyph-name="Ocircumflex" unicode="&#xd4;" horiz-adv-x="668" 
d="M327 1192q122 -53 269 -231v-750q-172 -211 -308 -211h-57q-231 204 -231 250v654zM231 1000l-39 -289v-307q0 -141 154 -250h58v615q0 103 -173 231zM302 1603h20q49 0 280 -370h-60l-240 264q-190 -264 -220 -264h-60v35q211 296 280 335z" />
    <glyph glyph-name="Ograve" unicode="&#xd2;" horiz-adv-x="646" 
d="M327 1192q122 -53 269 -231v-750q-172 -211 -308 -211h-57q-231 204 -231 250v654zM231 1000l-39 -289v-307q0 -141 154 -250h58v615q0 103 -173 231zM506 1229v-19l-19 -20l-157 176q-284 80 -293 137v39l39 39h20q204 0 410 -352z" />
    <glyph glyph-name="Uacute" unicode="&#xda;" horiz-adv-x="939" 
d="M151 1206l215 -216v-624l22 -151h107l86 86v582q0 43 -107 43l-22 21v22q50 106 194 215q194 -143 194 -258v-646l107 -65l65 22v-43q-143 -194 -258 -194q-123 172 -237 172l-172 -172h-44l-193 215v646l-108 86zM669 1603h19l39 -39v-39q-9 -57 -293 -137l-156 -176
l-20 20v19q207 352 411 352z" />
    <glyph glyph-name="Ucircumflex" unicode="&#xdb;" horiz-adv-x="939" 
d="M151 1206l215 -216v-624l22 -151h107l86 86v582q0 43 -107 43l-22 21v22q50 106 194 215q194 -143 194 -258v-646l107 -65l65 22v-43q-143 -194 -258 -194q-123 172 -237 172l-172 -172h-44l-193 215v646l-108 86zM302 1603h20q49 0 280 -370h-60l-240 264
q-190 -264 -220 -264h-60v35q211 296 280 335z" />
    <glyph glyph-name="Ugrave" unicode="&#xd9;" horiz-adv-x="1049" 
d="M151 1206l215 -216v-624l22 -151h107l86 86v582q0 43 -107 43l-22 21v22q50 106 194 215q194 -143 194 -258v-646l107 -65l65 22v-43q-143 -194 -258 -194q-123 172 -237 172l-172 -172h-44l-193 215v646l-108 86zM638 1273v-19l-19 -20l-157 176q-284 80 -293 137v39
l39 39h20q204 0 410 -352z" />
    <glyph glyph-name="dotlessi" unicode="&#x131;" horiz-adv-x="389" 
d="M137 1193h39q91 -59 176 -215v-39l-39 -59v-763l39 -58v-20l-39 -39q-39 0 -78 117h-20l-137 -117h-19l-39 39v157l39 58v606q-59 0 -59 39v40z" />
    <glyph glyph-name="Yacute" unicode="&#xdd;" horiz-adv-x="860" 
d="M592 1199l197 -256v-454q0 -210 -375 -453q-158 -209 -158 -296v-59l79 -98l-59 -60l-99 99v59q0 224 178 374l-217 217v631l-39 40h-39l-60 -20v20q71 169 158 217h19l158 -158h79q0 79 79 79zM375 745v-394l157 -98v631l-78 78q-50 0 -79 -217zM640 1611h19l39 -39v-39
q-9 -57 -293 -137l-156 -176l-20 20v19q207 352 411 352z" />
    <glyph glyph-name="Yacute" unicode="&#xfd;" horiz-adv-x="860" 
d="M592 1199l197 -256v-454q0 -210 -375 -453q-158 -209 -158 -296v-59l79 -98l-59 -60l-99 99v59q0 224 178 374l-217 217v631l-39 40h-39l-60 -20v20q71 169 158 217h19l158 -158h79q0 79 79 79zM375 745v-394l157 -98v631l-78 78q-50 0 -79 -217zM640 1611h19l39 -39v-39
q-9 -57 -293 -137l-156 -176l-20 20v19q207 352 411 352z" />
    <glyph glyph-name="Cacute" unicode="&#x106;" horiz-adv-x="594" 
d="M389 1207l156 -175v-59q-86 -136 -195 -136q-58 65 -58 117h-39l-19 -136v-409q39 -180 97 -195h78l78 59h19v-20l-253 -253h-39q-59 32 -214 253v117l19 234l-19 233v39q40 81 195 136zM448 1545h19l39 -39v-39q-9 -57 -293 -137l-156 -176l-20 20v19q207 352 411 352z
" />
    <glyph glyph-name="Cacute" unicode="&#x107;" horiz-adv-x="594" 
d="M389 1207l156 -175v-59q-86 -136 -195 -136q-58 65 -58 117h-39l-19 -136v-409q39 -180 97 -195h78l78 59h19v-20l-253 -253h-39q-59 32 -214 253v117l19 234l-19 233v39q40 81 195 136zM448 1545h19l39 -39v-39q-9 -57 -293 -137l-156 -176l-20 20v19q207 352 411 352z
" />
    <glyph glyph-name="Amacron" unicode="&#x100;" horiz-adv-x="756" 
d="M190 1199h57q38 0 38 -114l153 -38q78 152 114 152l95 -95v-1028l-38 -38l-57 57h-19q0 -76 -38 -76h-38l-38 209q-219 -105 -343 -228q-43 0 -76 228l114 571l-38 191q49 209 114 209zM133 1009v-153q62 -109 133 -152h153v305l-57 -38h-172zM171 552v-267l19 -95h19
q210 57 210 115v323h-172zM306 1529h112l68 -45h134l179 45l45 -67q0 -74 -202 -202l-425 67l-180 -67l-22 23v22q126 224 291 224z" />
    <glyph glyph-name="Amacron" unicode="&#x101;" horiz-adv-x="756" 
d="M190 1199h57q38 0 38 -114l153 -38q78 152 114 152l95 -95v-1028l-38 -38l-57 57h-19q0 -76 -38 -76h-38l-38 209q-219 -105 -343 -228q-43 0 -76 228l114 571l-38 191q49 209 114 209zM133 1009v-153q62 -109 133 -152h153v305l-57 -38h-172zM171 552v-267l19 -95h19
q210 57 210 115v323h-172zM306 1529h112l68 -45h134l179 45l45 -67q0 -74 -202 -202l-425 67l-180 -67l-22 23v22q126 224 291 224z" />
    <glyph glyph-name="Ccircumflex" unicode="&#x108;" horiz-adv-x="616" 
d="M389 1207l156 -175v-59q-86 -136 -195 -136q-58 65 -58 117h-39l-19 -136v-409q39 -180 97 -195h78l78 59h19v-20l-253 -253h-39q-59 32 -214 253v117l19 234l-19 233v39q40 81 195 136zM302 1603h20q49 0 280 -370h-60l-240 264q-190 -264 -220 -264h-60v35
q211 296 280 335z" />
    <glyph glyph-name="smileface" unicode="&#x263a;" horiz-adv-x="2091" 
d="M849 1699q214 0 417 -109.5t318 -313.5t115 -426q0 -221 -112 -422.5t-314.5 -313.5t-423.5 -112q-220 0 -422.5 112t-314.5 313.5t-112 422.5q0 222 114 426t317 313.5t418 109.5zM849 1575q-182 0 -355.5 -93.5t-271.5 -268t-98 -363.5q0 -188 96 -360t268.5 -268
t360.5 -96t361 96t269 268t96 360q0 189 -98 363.5t-271.5 268t-356.5 93.5zM524 1133q44 0 75.5 -30.5t31.5 -76.5q0 -45 -31.5 -76t-75.5 -31q-45 0 -77 31t-32 76q0 46 32 76.5t77 30.5zM1175 1133q44 0 75.5 -30.5t31.5 -76.5q0 -45 -31.5 -76t-75.5 -31t-76.5 31
t-32.5 76q0 46 31.5 76.5t77.5 30.5zM457 577l84 47q105 -190 308 -190q204 0 307 190l86 -47q-67 -126 -165.5 -192.5t-227.5 -66.5q-130 0 -227.5 66.5t-164.5 192.5z" />
  </font>
</defs>
</svg>
